name GIL01_free4EmgEnv.mot
datacolumns 51
datarows 7
range 0.92129630 0.92685187
endheader
                time	   rect_fem_l_emgRec	   rect_fem_l_emgEnv	   rect_fem_l_emgAve	   rect_fem_l_emgSDp	   rect_fem_l_emgSDm	   rect_fem_r_emgRec	   rect_fem_r_emgEnv	   rect_fem_r_emgAve	   rect_fem_r_emgSDp	   rect_fem_r_emgSDm	   med_hams_l_emgRec	   med_hams_l_emgEnv	   med_hams_l_emgAve	   med_hams_l_emgSDp	   med_hams_l_emgSDm	   med_hams_r_emgRec	   med_hams_r_emgEnv	   med_hams_r_emgAve	   med_hams_r_emgSDp	   med_hams_r_emgSDm	   lat_hams_l_emgRec	   lat_hams_l_emgEnv	   lat_hams_l_emgAve	   lat_hams_l_emgSDp	   lat_hams_l_emgSDm	   lat_hams_r_emgRec	   lat_hams_r_emgEnv	   lat_hams_r_emgAve	   lat_hams_r_emgSDp	   lat_hams_r_emgSDm	    tib_ant_l_emgRec	    tib_ant_l_emgEnv	    tib_ant_l_emgAve	    tib_ant_l_emgSDp	    tib_ant_l_emgSDm	    tib_ant_r_emgRec	    tib_ant_r_emgEnv	    tib_ant_r_emgAve	    tib_ant_r_emgSDp	    tib_ant_r_emgSDm	    gas_sol_l_emgRec	    gas_sol_l_emgEnv	    gas_sol_l_emgAve	    gas_sol_l_emgSDp	    gas_sol_l_emgSDm	    gas_sol_r_emgRec	    gas_sol_r_emgEnv	    gas_sol_r_emgAve	    gas_sol_r_emgSDp	    gas_sol_r_emgSDm	
          0.92129630	          0.08745508	          0.17357388	          0.11453035	          0.17552860	          0.05353209	          0.00781780	          0.05810664	          0.17833802	          0.40054463	         -0.04386859	          0.00060089	          0.07854659	          0.06649289	          0.14092564	         -0.00793985	          0.24958557	          0.25480391	          0.51890373	          0.69989744	          0.33791003	          0.02278257	          0.03057173	          0.01778187	          0.04566975	         -0.01010601	          0.13788811	          0.32001511	          0.39224082	          0.69480121	          0.08968043	          0.09989439	          0.32259664	          0.27900469	          0.37874910	          0.17926028	          0.22645140	          0.23379886	          0.25024983	          0.33524799	          0.16525168	          0.00009514	          0.04728379	          0.09721692	          0.22683232	         -0.03239848	          0.18856086	          0.37882748	          0.28415328	          0.37163784	          0.19666873	
          0.92222220	          0.02411909	          0.17291020	          0.11435726	          0.17511846	          0.05359606	          0.00865145	          0.05842017	          0.17873846	          0.40220499	         -0.04472807	          0.01039976	          0.07767151	          0.06798348	          0.14366712	         -0.00770017	          0.15915665	          0.25018887	          0.51956165	          0.70132446	          0.33779883	          0.00271734	          0.03041439	          0.01734390	          0.04502409	         -0.01033630	          0.19685355	          0.31695644	          0.39225683	          0.69500858	          0.08950508	          0.16663992	          0.32201393	          0.27626249	          0.37560188	          0.17692310	          0.24555939	          0.23554167	          0.24976696	          0.33404332	          0.16549060	          0.00111523	          0.04787243	          0.09678496	          0.22573727	         -0.03216735	          0.18135392	          0.38424852	          0.28530991	          0.37196880	          0.19865102	
          0.92314816	          0.03567004	          0.17222770	          0.11418176	          0.17470125	          0.05366226	          0.00920529	          0.05880815	          0.17913546	          0.40384971	         -0.04557879	          0.00959091	          0.07669355	          0.06951554	          0.14645810	         -0.00742702	          0.00385604	          0.24583887	          0.52021235	          0.70274635	          0.33767836	          0.00345864	          0.03025761	          0.01691180	          0.04438183	         -0.01055824	          0.22046612	          0.31369996	          0.39226019	          0.69521290	          0.08930749	          0.18975238	          0.32139898	          0.27353409	          0.37245877	          0.17460941	          0.22094290	          0.23733262	          0.24927828	          0.33284851	          0.16570804	          0.00048973	          0.04844051	          0.09634914	          0.22462898	         -0.03193071	          0.01378727	          0.38954491	          0.28646863	          0.37230853	          0.20062872	
          0.92407405	          0.06609202	          0.17152663	          0.11400393	          0.17427720	          0.05373067	          0.01298773	          0.05926791	          0.17952873	          0.40547819	         -0.04642074	          0.01786931	          0.07561224	          0.07108894	          0.14929777	         -0.00711989	          0.06059141	          0.24175446	          0.52085561	          0.70416266	          0.33754855	          0.00698158	          0.03010130	          0.01648623	          0.04374403	         -0.01077157	          0.20533768	          0.31025179	          0.39225093	          0.69541419	          0.08908767	          0.03988719	          0.32075184	          0.27082065	          0.36932142	          0.17231987	          0.18544690	          0.23916971	          0.24878377	          0.33166369	          0.16590384	          0.00182250	          0.04898616	          0.09590968	          0.22350794	         -0.03168857	          0.15546846	          0.39470873	          0.28762895	          0.37265673	          0.20260117	
          0.92500001	          0.10885476	          0.17080732	          0.11382382	          0.17384647	          0.05380116	          0.00500692	          0.05979656	          0.17991807	          0.40709022	         -0.04725409	          0.02781040	          0.07442741	          0.07270397	          0.15218611	         -0.00677818	          0.05778401	          0.23793555	          0.52149177	          0.70557387	          0.33740966	          0.03168556	          0.02994534	          0.01606775	          0.04311160	         -0.01097611	          0.18115644	          0.30661865	          0.39222908	          0.69561249	          0.08884567	          0.08255084	          0.32007255	          0.26812276	          0.36619079	          0.17005473	          0.10199709	          0.24105066	          0.24828325	          0.33048863	          0.16607787	          0.00004829	          0.04950759	          0.09546675	          0.22237448	         -0.03144099	          0.04651384	          0.39973217	          0.28879094	          0.37301346	          0.20456842	
          0.92592591	          0.17606739	          0.17007016	          0.11364154	          0.17340933	          0.05387374	          0.00131247	          0.06039107	          0.18030326	          0.40868527	         -0.04807875	          0.02294401	          0.07313918	          0.07436045	          0.15512227	         -0.00640138	          0.07400030	          0.23438142	          0.52212048	          0.70697948	          0.33726147	          0.03423187	          0.02978965	          0.01565702	          0.04248564	         -0.01117159	          0.15050913	          0.30280778	          0.39219460	          0.69580767	          0.08858153	          0.07436591	          0.31936119	          0.26544166	          0.36306860	          0.16781471	          0.00831605	          0.24297293	          0.24777663	          0.32932336	          0.16622990	          0.00964084	          0.05000312	          0.09502061	          0.22122920	         -0.03118798	          0.16943270	          0.40460755	          0.28995427	          0.37337863	          0.20652992	
          0.92685187	          0.18457555	          0.16931561	          0.11345713	          0.17296592	          0.05394834	          0.01427375	          0.06104818	          0.18068415	          0.41026311	         -0.04889481	          0.02886433	          0.07174798	          0.07605866	          0.15810620	         -0.00598889	          0.17333348	          0.23109077	          0.52274191	          0.70837975	          0.33710408	          0.03504902	          0.02963416	          0.01525463	          0.04186708	         -0.01135782	          0.10027560	          0.29882697	          0.39214757	          0.69599971	          0.08829543	          0.02927066	          0.31861786	          0.26277792	          0.35995587	          0.16559998	          0.08914263	          0.24493372	          0.24726386	          0.32816777	          0.16635996	          0.00272445	          0.05047112	          0.09457143	          0.22007239	         -0.03092954	          0.17153405	          0.40932736	          0.29111898	          0.37375219	          0.20848577	
